<?xml version="1.0" standalone="no"?>
<!DOCTYPE svg PUBLIC "-//W3C//DTD SVG 20010904//EN" "http://www.w3.org/TR/2001/REC-SVG-20010904/DTD/svg10.dtd">
<svg version="1.0" xmlns="http://www.w3.org/2000/svg"
    width="1000.000000pt" height="1000.000000pt" viewBox="0 0 1000.000000 1000.000000"
    preserveAspectRatio="xMidYMid meet">

    <g transform="translate(0.000000,1000.000000) scale(0.100000,-0.100000)"
        fill="#ffffff" stroke="none">
        <path
            d="M5570 9563 c-135 -8 -320 -27 -430 -44 -1353 -210 -2502 -1052 -3105
-2274 -188 -381 -314 -775 -379 -1185 -13 -85 -20 -143 -41 -355 -26 -258 18
-995 60 -995 9 0 9 20 -1 93 -21 150 -29 317 -28 567 2 327 35 592 114 927 40
165 42 168 70 98 59 -144 241 -427 380 -590 300 -350 643 -572 1125 -728 304
-99 626 -144 950 -134 368 13 709 84 1050 219 99 39 351 162 369 179 19 18 41
8 132 -61 392 -294 707 -669 921 -1093 48 -97 153 -350 153 -371 0 -7 -24 -18
-52 -25 -184 -47 -382 -121 -598 -224 -205 -97 -638 -263 -922 -352 -65 -20
-118 -40 -118 -44 0 -18 367 46 608 105 135 33 487 135 632 184 96 32 272 121
383 193 53 36 99 61 102 57 12 -19 66 -261 82 -367 22 -147 23 -606 2 -778
l-14 -110 -30 -3 c-70 -6 -224 -34 -270 -49 -27 -8 -95 -35 -150 -58 -55 -23
-224 -89 -375 -145 -151 -57 -279 -107 -285 -112 -31 -27 334 36 720 126 146
33 246 71 327 122 22 14 42 24 44 22 6 -6 -30 -187 -65 -328 -39 -156 -89
-315 -153 -491 l-50 -136 -71 -21 c-92 -26 -320 -77 -414 -92 -109 -18 -93
-34 25 -26 516 36 1095 210 1582 476 132 73 361 220 494 319 351 261 704 634
953 1006 376 563 598 1177 680 1873 20 178 23 634 4 817 -84 827 -390 1571
-916 2232 -194 243 -525 562 -785 754 -426 316 -918 552 -1431 688 -403 107
-881 157 -1279 134z m415 -168 c132 -7 417 -47 570 -80 172 -37 445 -115 445
-127 0 -3 -24 -12 -52 -18 -82 -19 -420 -124 -558 -173 -1000 -355 -1676 -870
-2132 -1626 -227 -376 -367 -792 -433 -1291 -26 -197 -30 -275 -30 -622 1
-186 -1 -338 -3 -338 -2 0 -57 14 -122 30 -337 85 -653 245 -1010 510 -63 47
-118 88 -123 91 -9 6 193 655 286 919 120 339 269 703 375 915 365 730 970
1307 1784 1700 164 78 178 83 275 95 204 24 446 29 728 15z m-1140 -114 c-532
-232 -1007 -574 -1366 -981 -351 -399 -641 -912 -784 -1385 -96 -316 -180
-748 -201 -1023 -4 -51 -11 -91 -15 -90 -16 6 -237 216 -334 318 -113 118
-305 342 -319 370 -11 24 53 218 136 415 462 1097 1383 1940 2518 2307 109 35
425 117 455 117 11 0 -29 -21 -90 -48z m2344 -157 c260 -102 584 -277 819
-441 182 -127 479 -373 496 -410 4 -9 -31 -12 -139 -12 -461 0 -900 -121
-1267 -348 -174 -107 -330 -233 -504 -407 -207 -208 -330 -369 -473 -619 -238
-416 -368 -875 -396 -1397 -4 -63 -10 -118 -13 -121 -16 -14 -263 -114 -372
-149 -318 -105 -603 -152 -930 -154 -198 -1 -337 7 -445 24 -33 6 -75 13 -93
16 -31 5 -32 7 -27 42 75 546 106 725 181 1032 123 501 311 972 522 1309 392
624 1023 1105 1932 1472 170 68 557 208 579 209 8 0 66 -21 130 -46z m1472
-1010 c274 -295 485 -606 670 -989 199 -415 312 -807 376 -1310 24 -194 24
-701 0 -895 -24 -191 -53 -359 -85 -491 l-28 -114 2 270 c5 471 -52 849 -187
1250 -152 450 -413 921 -693 1250 -242 284 -646 647 -950 854 l-49 34 34 14
c63 27 357 112 491 143 166 38 320 68 333 66 6 0 45 -38 86 -82z m-910 -256
c46 -51 144 -158 218 -238 543 -587 904 -1052 1112 -1430 247 -449 395 -972
434 -1534 8 -117 7 -507 -1 -575 -25 -207 -325 -801 -576 -1139 -130 -176
-410 -492 -497 -561 l-38 -30 44 177 c128 520 183 905 188 1327 3 269 -4 388
-36 615 -84 601 -339 1187 -713 1640 -310 375 -776 737 -1258 976 -76 38 -138
73 -138 78 0 15 171 185 275 273 202 170 434 311 735 445 120 54 148 66 161
67 3 1 44 -41 90 -91z m-1162 -828 c68 -52 185 -144 260 -204 649 -522 1151
-1120 1395 -1662 207 -462 295 -943 282 -1544 -8 -380 -43 -691 -126 -1115
l-40 -200 -42 -38 c-203 -181 -519 -397 -791 -541 -192 -103 -517 -240 -689
-291 l-50 -15 18 28 c248 374 390 750 435 1146 12 113 15 348 4 459 -29 312
-129 686 -260 972 -102 224 -292 516 -463 709 -45 51 -232 238 -288 288 -115
102 -365 282 -462 332 -33 17 -33 17 -27 74 69 616 281 1153 634 1605 41 53
78 96 81 95 4 -2 62 -46 129 -98z" />
        <path
            d="M3277 4342 c-54 -54 -95 -101 -92 -105 3 -4 2 -5 -2 -2 -9 7 -73 -56
-73 -71 0 -7 19 -16 45 -20 25 -3 45 -9 45 -13 0 -3 -23 -48 -50 -100 -27 -51
-47 -98 -43 -104 3 -5 2 -7 -3 -4 -10 6 -212 -388 -206 -400 2 -3 0 -9 -6 -12
-12 -8 -96 -193 -133 -294 -32 -86 -46 -182 -35 -239 7 -38 44 -84 57 -71 4 4
29 55 54 113 65 146 90 201 146 311 26 53 45 100 41 104 -4 5 -2 5 4 2 14 -8
37 40 28 56 -4 7 -4 9 1 5 12 -11 354 617 385 708 34 98 22 180 -32 218 -12 9
-25 16 -28 16 -3 0 -49 -44 -103 -98z" />
        <path
            d="M3979 4427 c-25 -7 -68 -26 -95 -42 -58 -34 -188 -161 -179 -175 4
-6 1 -9 -7 -8 -7 2 -12 -5 -12 -14 1 -10 -2 -15 -7 -12 -19 11 -158 -244 -144
-266 9 -15 77 -12 118 5 36 15 124 105 148 153 7 15 35 53 62 84 29 34 46 62
41 69 -4 7 -3 9 3 6 5 -4 23 7 39 24 133 139 274 127 274 -25 0 -132 -147
-342 -415 -594 -101 -94 -265 -232 -365 -305 -14 -10 -18 -15 -10 -11 9 4 12
3 7 -2 -5 -5 -14 -9 -20 -9 -7 0 -59 -32 -117 -71 -58 -39 -124 -81 -146 -94
-46 -25 -78 -70 -56 -77 6 -3 10 -8 7 -13 -7 -12 16 -60 26 -54 5 3 6 -1 3 -9
-6 -17 59 -77 84 -77 10 0 49 9 87 19 163 45 417 87 548 90 40 1 47 4 47 21 0
11 -4 20 -10 20 -5 0 -9 3 -8 8 4 12 -25 46 -57 67 -26 18 -45 20 -160 18 -93
-1 -153 -7 -210 -21 -44 -11 -81 -19 -83 -17 -2 2 11 11 30 21 45 22 308 197
333 221 11 10 30 26 42 34 165 114 442 417 515 564 100 198 57 374 -112 460
-44 23 -142 28 -201 12z" />
        <path
            d="M2671 4312 c-6 -11 -7 -23 -3 -27 4 -5 2 -5 -5 -1 -7 4 -26 -18 -50
-56 -21 -35 -38 -65 -38 -68 -1 -3 -17 -30 -37 -60 -19 -30 -48 -79 -64 -107
l-28 -53 -117 0 -117 0 38 78 c44 90 80 201 80 247 0 38 -21 62 -38 43 -15
-20 -123 -203 -176 -301 -26 -48 -51 -85 -55 -83 -4 3 -34 1 -67 -5 -32 -5
-77 -11 -99 -14 -54 -7 -149 -55 -153 -79 -4 -17 1 -18 70 -12 86 8 187 10
194 4 5 -6 -165 -358 -174 -359 -156 -18 -280 -57 -266 -81 4 -7 4 -10 -1 -6
-9 9 -35 -9 -35 -23 0 -5 57 -6 130 -2 72 3 130 4 130 2 0 -2 -9 -28 -20 -58
-37 -97 -52 -179 -40 -217 7 -19 15 -34 20 -34 5 0 43 71 85 159 l77 158 60 7
c34 3 87 6 120 6 l59 0 -15 -29 c-9 -16 -23 -48 -31 -72 -9 -24 -23 -60 -30
-79 -28 -75 -25 -170 5 -170 15 0 72 119 64 133 -4 7 -3 8 1 4 8 -7 28 28 109
190 10 21 18 23 86 23 98 0 204 23 252 55 33 22 52 48 31 43 -5 0 -15 2 -23 5
-8 4 -72 8 -142 9 l-128 3 95 170 95 170 91 7 c103 7 173 29 207 64 l23 24
-26 10 c-15 6 -71 10 -126 10 -54 0 -99 2 -99 5 0 3 20 45 44 93 54 107 78
187 74 243 -3 47 -21 61 -37 31z m-378 -656 l-88 -173 -113 -8 c-62 -4 -115
-6 -117 -3 -2 2 9 29 25 59 68 124 99 187 93 193 -4 3 -2 6 4 6 5 0 20 23 33
50 l23 50 114 0 113 0 -87 -174z" />
        <path
            d="M775 2810 c-55 -15 -138 -39 -185 -53 -47 -14 -114 -31 -150 -37 -36
-7 -68 -14 -72 -16 -4 -3 1 -22 11 -43 18 -34 63 -65 124 -85 18 -6 18 -8 -4
-44 -32 -54 -154 -262 -170 -293 -42 -78 -218 -433 -217 -438 1 -3 -10 -31
-24 -61 -76 -165 -100 -294 -70 -370 29 -75 47 -63 103 70 27 63 61 140 75
170 15 30 27 60 28 66 1 7 7 18 13 25 6 8 23 40 37 72 l25 57 39 -16 c27 -10
58 -14 95 -10 66 6 207 46 207 58 0 5 4 6 10 3 25 -15 339 167 332 194 -1 6 2
10 6 9 15 -5 78 57 136 133 123 162 152 333 81 484 -71 152 -202 190 -430 125z
m286 -130 c51 -14 69 -46 69 -119 0 -67 -31 -146 -82 -212 -15 -20 -28 -42
-28 -48 0 -6 -5 -11 -11 -11 -6 0 -8 -7 -5 -16 3 -9 2 -12 -5 -9 -5 4 -29 -11
-52 -32 -23 -21 -60 -52 -82 -68 -22 -17 -42 -32 -45 -35 -3 -3 -17 -11 -32
-19 -15 -8 -25 -19 -21 -24 3 -6 1 -7 -5 -3 -6 4 -34 -5 -61 -18 -90 -46 -270
-106 -317 -106 -15 0 6 42 121 240 114 197 145 265 159 351 6 36 7 37 114 74
89 32 194 60 237 64 6 0 26 -4 46 -9z" />
        <path
            d="M1714 2821 c-16 -10 -41 -33 -56 -52 -15 -19 -39 -47 -53 -64 -58
-65 -225 -294 -225 -309 0 -3 -12 -22 -26 -43 -14 -21 -57 -100 -95 -176 -153
-307 -222 -573 -186 -711 16 -59 62 -121 97 -128 8 -2 18 -7 22 -13 11 -16
177 -13 187 3 5 8 12 13 17 13 29 -2 137 64 183 113 31 33 37 33 44 -1 7 -36
45 -91 80 -117 23 -17 43 -21 100 -21 92 0 145 25 235 111 37 35 68 64 69 64
2 0 3 -8 3 -19 0 -29 21 -81 31 -75 5 3 6 -1 3 -9 -6 -17 43 -60 59 -50 6 3 7
1 3 -5 -9 -14 55 -32 114 -32 52 0 133 35 193 82 26 21 42 28 45 20 2 -7 9 -9
14 -6 7 5 8 2 3 -5 -10 -17 31 -58 69 -70 79 -24 189 8 269 78 40 36 43 34 23
-19 -44 -114 -43 -114 -122 -149 -41 -18 -74 -38 -74 -43 0 -5 -4 -7 -9 -4 -9
6 -112 -61 -185 -119 -20 -16 -58 -57 -83 -90 -103 -135 -135 -267 -93 -378
28 -76 95 -147 136 -147 49 0 129 55 196 134 74 86 162 231 152 247 -4 7 -3 9
3 6 10 -6 99 171 162 323 17 41 35 80 39 85 4 6 42 26 85 44 128 56 226 119
304 197 l73 73 10 -37 c24 -88 105 -171 193 -197 137 -41 290 2 440 122 69 55
207 209 207 230 0 6 4 13 9 15 23 9 207 330 198 345 -3 5 18 8 47 9 46 0 154
28 166 43 6 7 73 32 76 28 1 -1 -36 -49 -82 -106 -46 -58 -81 -107 -79 -109 3
-3 -2 -10 -9 -16 -31 -24 -100 -164 -120 -242 -19 -73 -20 -119 -5 -179 12
-46 66 -113 109 -136 42 -21 110 -27 165 -14 54 12 125 50 125 66 0 5 7 9 15
9 17 0 88 86 116 142 32 63 38 188 9 188 -5 0 -26 -34 -47 -76 -102 -204 -246
-319 -322 -256 -21 17 -55 122 -40 122 5 0 9 13 9 28 0 87 82 236 225 412 87
107 97 125 97 171 -1 46 -31 116 -65 147 l-22 21 -95 -55 c-52 -30 -113 -59
-135 -65 -22 -6 -48 -12 -57 -15 -23 -7 -23 9 2 81 30 86 37 177 15 198 -23
23 -43 21 -87 -9 -113 -79 -191 -257 -144 -329 9 -14 23 -25 31 -25 8 0 15 -8
15 -18 0 -27 -62 -150 -130 -258 -33 -53 -60 -98 -60 -100 0 -2 -8 -12 -17
-23 -10 -10 -42 -46 -72 -80 -65 -75 -169 -160 -231 -188 -61 -28 -149 -38
-195 -23 -73 24 -113 130 -95 254 19 132 20 134 61 106 16 -12 34 -18 40 -14
7 4 9 3 5 -4 -18 -29 157 -49 190 -21 10 8 18 12 18 10 1 -2 11 -1 24 3 12 4
19 12 16 18 -4 7 -2 8 4 4 16 -10 98 68 137 129 75 118 95 231 50 297 -30 44
-120 112 -136 102 -8 -4 -9 -3 -5 4 9 16 -35 26 -87 20 -37 -4 -94 -27 -159
-63 -10 -5 -16 -15 -14 -22 3 -7 -1 -10 -8 -7 -17 7 -90 -64 -152 -146 -66
-88 -121 -200 -142 -290 l-17 -75 -110 -111 c-103 -104 -271 -230 -295 -222
-12 4 54 147 218 478 l127 255 0 80 c0 69 -3 84 -22 104 -26 28 -43 24 -63
-15 -8 -16 -18 -31 -21 -34 -25 -21 -141 -249 -133 -262 4 -6 3 -8 -3 -5 -6 4
-17 -6 -24 -21 -8 -15 -31 -57 -53 -95 -21 -37 -36 -74 -32 -82 3 -8 0 -12 -7
-10 -7 3 -33 -31 -60 -75 -121 -201 -250 -316 -316 -281 -65 35 -17 204 130
458 122 210 132 231 136 302 4 57 2 71 -19 101 -13 19 -30 35 -38 35 -21 0
-156 -206 -233 -356 -72 -138 -131 -282 -142 -344 -4 -22 -22 -58 -40 -80 -44
-53 -108 -120 -115 -119 -3 0 -19 -5 -37 -13 -58 -24 -85 -16 -103 31 -12 33
-6 79 22 156 21 58 112 234 134 261 8 8 14 18 14 21 0 3 17 35 39 70 83 136
111 229 92 305 -7 24 -21 54 -32 66 l-21 22 -24 -30 c-13 -16 -38 -57 -56 -90
l-32 -60 -11 40 c-18 69 -41 101 -86 119 -79 32 -202 -12 -331 -118 -123 -102
-267 -296 -319 -430 -36 -94 -96 -182 -170 -252 -29 -27 -60 -57 -71 -66 -10
-10 -19 -18 -20 -17 -2 0 -16 -4 -31 -10 -49 -19 -76 -23 -102 -17 -73 19 -73
180 2 381 23 62 32 75 77 105 133 92 338 321 420 471 46 84 95 219 102 283 11
88 -27 181 -87 211 -22 12 -30 11 -55 -4z m54 -263 c-35 -158 -175 -381 -352
-560 -91 -93 -107 -93 -56 1 16 29 27 59 23 65 -3 6 -3 8 2 4 4 -4 39 47 78
115 82 145 178 296 224 353 18 22 31 44 28 47 -3 4 -2 5 1 2 4 -2 16 2 27 10
29 21 36 11 25 -37z m2368 -394 c8 -32 -11 -87 -59 -169 -54 -92 -124 -166
-187 -195 -47 -22 -55 -23 -98 -11 -25 6 -48 14 -50 16 -2 1 10 29 26 61 109
213 342 402 368 298z m-1835 6 c40 -22 19 -152 -47 -283 -19 -37 -32 -73 -28
-79 4 -6 3 -8 -3 -5 -5 3 -18 -10 -27 -30 -31 -64 -149 -235 -204 -294 -53
-57 -120 -99 -159 -99 -81 0 -75 169 13 343 19 37 31 67 28 67 -3 0 2 7 10 16
9 8 30 37 48 62 89 132 221 263 300 297 40 17 44 18 69 5z m539 -1019 c0 -3
-23 -53 -50 -110 -27 -57 -47 -108 -43 -115 3 -6 2 -8 -2 -3 -5 4 -31 -32 -60
-80 -28 -49 -65 -108 -83 -132 -17 -24 -29 -48 -25 -54 3 -5 2 -7 -4 -4 -10 6
-60 -42 -56 -54 1 -3 -3 -6 -10 -7 -7 0 -21 -2 -32 -4 -18 -3 -20 2 -19 57 2
136 133 337 301 465 34 26 59 50 55 54 -3 4 1 4 11 0 9 -3 17 -9 17 -13z" />
    </g>
</svg>